<svg width="1112" height="471" viewBox="0 0 1112 471" fill="none" xmlns="http://www.w3.org/2000/svg">
<g filter="url(#filter0_d_628_8)">
<rect x="48" y="77" width="290" height="290" rx="70" fill="#F9F9F9"/>
</g>
<g filter="url(#filter1_i_628_8)">
<circle cx="193" cy="222" r="107" fill="url(#paint0_linear_628_8)"/>
</g>
<g filter="url(#filter2_d_628_8)">
<path d="M450.745 270.256C449.337 271.152 447.993 271.429 446.713 271.088C445.433 270.747 444.345 269.872 443.449 268.464L423.609 235.44H405.689V264.624C405.689 268.208 403.897 270 400.313 270C396.729 270 394.937 268.208 394.937 264.624V188.592C394.937 185.008 396.729 183.216 400.313 183.216H430.265C438.073 183.216 444.046 185.307 448.185 189.488C452.366 193.627 454.457 199.6 454.457 207.408V211.248C454.457 218.032 452.878 223.451 449.721 227.504C446.564 231.515 441.998 234.011 436.025 234.992L452.793 262.96C454.414 265.947 453.732 268.379 450.745 270.256ZM405.689 224.688H430.265C435.129 224.688 438.585 223.664 440.633 221.616C442.681 219.568 443.705 216.112 443.705 211.248V207.408C443.705 202.587 442.681 199.152 440.633 197.104C438.585 195.013 435.129 193.968 430.265 193.968H405.689V224.688ZM482.617 241.968V245.04C482.617 250.544 483.62 254.299 485.625 256.304C487.63 258.267 491.406 259.248 496.953 259.248H507.449C511.801 259.248 515.022 258.843 517.113 258.032C519.204 257.221 520.59 255.792 521.273 253.744C521.742 252.123 522.382 250.885 523.193 250.032C524.046 249.179 525.326 248.752 527.033 248.752C528.825 248.752 530.19 249.221 531.129 250.16C532.068 251.099 532.366 252.464 532.025 254.256C531.086 259.547 528.569 263.493 524.473 266.096C520.377 268.699 514.702 270 507.449 270H496.953C488.462 270 482.148 267.952 478.009 263.856C473.913 259.76 471.865 253.488 471.865 245.04V230.192C471.865 221.531 473.913 215.173 478.009 211.12C482.148 207.024 488.462 205.019 496.953 205.104H507.449C515.982 205.104 522.297 207.152 526.393 211.248C530.489 215.301 532.537 221.616 532.537 230.192V236.592C532.537 240.176 530.745 241.968 527.161 241.968H482.617ZM496.953 215.856C491.406 215.771 487.63 216.731 485.625 218.736C483.62 220.741 482.617 224.56 482.617 230.192V231.216H521.785V230.192C521.785 224.603 520.782 220.827 518.777 218.864C516.814 216.859 513.038 215.856 507.449 215.856H496.953ZM627.102 205.104C635.166 205.104 640.947 207.003 644.446 210.8C647.987 214.597 649.758 220.891 649.758 229.68V264.624C649.758 268.208 647.966 270 644.382 270C640.798 270 639.006 268.208 639.006 264.624V229.68C639.006 224.816 638.067 221.296 636.19 219.12C634.355 216.944 631.326 215.856 627.102 215.856H621.854C616.99 215.856 613.513 216.944 611.422 219.12C609.331 221.296 608.286 224.816 608.286 229.68V264.624C608.286 268.208 606.494 270 602.91 270C599.326 270 597.534 268.208 597.534 264.624V229.68C597.534 224.816 596.595 221.296 594.718 219.12C592.883 216.944 589.854 215.856 585.63 215.856H580.382C575.518 215.856 572.041 216.944 569.95 219.12C567.859 221.296 566.814 224.816 566.814 229.68V264.624C566.814 268.208 565.022 270 561.438 270C557.854 270 556.062 268.208 556.062 264.624V210.48C556.062 206.896 557.854 205.104 561.438 205.104C565.022 205.104 566.814 206.896 566.814 210.48V213.424C569.075 210.48 571.55 208.368 574.238 207.088C576.969 205.765 580.211 205.104 583.966 205.104H585.63C590.921 205.104 595.081 205.851 598.11 207.344C601.139 208.795 603.443 211.163 605.022 214.448C607.283 211.077 609.673 208.688 612.19 207.28C614.75 205.829 617.971 205.104 621.854 205.104H627.102ZM697.078 270C688.587 270 682.273 267.952 678.134 263.856C674.038 259.76 671.99 253.488 671.99 245.04V230.192C671.99 221.616 674.038 215.301 678.134 211.248C682.273 207.152 688.587 205.104 697.078 205.104H707.574C716.107 205.104 722.422 207.152 726.518 211.248C730.614 215.344 732.662 221.659 732.662 230.192V244.912C732.662 253.403 730.614 259.717 726.518 263.856C722.422 267.952 716.107 270 707.574 270H697.078ZM682.742 245.04C682.742 250.544 683.745 254.299 685.75 256.304C687.755 258.267 691.531 259.248 697.078 259.248H707.574C713.163 259.248 716.939 258.245 718.902 256.24C720.907 254.235 721.91 250.459 721.91 244.912V230.192C721.91 224.603 720.907 220.827 718.902 218.864C716.939 216.859 713.163 215.856 707.574 215.856H697.078C693.366 215.856 690.465 216.283 688.374 217.136C686.326 217.947 684.875 219.397 684.022 221.488C683.169 223.536 682.742 226.437 682.742 230.192V245.04ZM779.031 266.032C778.476 267.355 777.687 268.357 776.663 269.04C775.682 269.68 774.423 270 772.887 270C770.199 270 768.279 268.592 767.127 265.776L745.367 212.784C743.874 209.371 744.812 207.024 748.183 205.744C751.383 204.251 753.73 205.189 755.223 208.56L775.575 258.224H770.583L792.855 208.304C793.58 206.896 794.562 205.936 795.799 205.424C797.079 204.912 798.487 205.019 800.023 205.744C803.18 207.237 804.034 209.627 802.583 212.912L779.031 266.032ZM826.242 241.968V245.04C826.242 250.544 827.245 254.299 829.25 256.304C831.255 258.267 835.031 259.248 840.578 259.248H851.074C855.426 259.248 858.647 258.843 860.738 258.032C862.829 257.221 864.215 255.792 864.898 253.744C865.367 252.123 866.007 250.885 866.818 250.032C867.671 249.179 868.951 248.752 870.658 248.752C872.45 248.752 873.815 249.221 874.754 250.16C875.693 251.099 875.991 252.464 875.65 254.256C874.711 259.547 872.194 263.493 868.098 266.096C864.002 268.699 858.327 270 851.074 270H840.578C832.087 270 825.773 267.952 821.634 263.856C817.538 259.76 815.49 253.488 815.49 245.04V230.192C815.49 221.531 817.538 215.173 821.634 211.12C825.773 207.024 832.087 205.019 840.578 205.104H851.074C859.607 205.104 865.922 207.152 870.018 211.248C874.114 215.301 876.162 221.616 876.162 230.192V236.592C876.162 240.176 874.37 241.968 870.786 241.968H826.242ZM840.578 215.856C835.031 215.771 831.255 216.731 829.25 218.736C827.245 220.741 826.242 224.56 826.242 230.192V231.216H865.41V230.192C865.41 224.603 864.407 220.827 862.402 218.864C860.439 216.859 856.663 215.856 851.074 215.856H840.578ZM935.841 269.488C932.428 268.165 931.404 265.819 932.769 262.448L963.233 187.44C964.513 184.624 966.518 183.216 969.249 183.216H969.505C972.278 183.344 974.156 184.752 975.137 187.44L1006.11 262.448C1007.48 265.819 1006.5 268.165 1003.17 269.488C999.798 270.811 997.452 269.829 996.129 266.544L989.217 249.776H949.345L942.753 266.544C941.43 269.872 939.126 270.853 935.841 269.488ZM953.569 239.024H984.801L968.865 200.24L953.569 239.024ZM1044.7 270C1036.21 270 1029.9 267.952 1025.76 263.856C1021.66 259.717 1019.62 253.403 1019.62 244.912V230.192C1019.62 221.659 1021.66 215.344 1025.76 211.248C1029.9 207.152 1036.21 205.104 1044.7 205.104H1069.54V185.264C1069.54 181.68 1071.33 179.888 1074.91 179.888C1078.5 179.888 1080.29 181.68 1080.29 185.264V264.624C1080.29 268.208 1078.5 270 1074.91 270C1071.33 270 1069.54 268.208 1069.54 264.624V263.728C1067.53 265.776 1064.91 267.333 1061.66 268.4C1058.42 269.467 1054.39 270 1049.57 270H1044.7ZM1044.7 259.248H1049.57C1055.2 259.248 1059.94 258.523 1063.78 257.072C1067.62 255.621 1069.54 253.403 1069.54 250.416V215.856H1044.7C1039.16 215.856 1035.38 216.88 1033.38 218.928C1031.37 220.933 1030.37 224.688 1030.37 230.192V244.912C1030.37 250.459 1031.37 254.235 1033.38 256.24C1035.42 258.245 1039.2 259.248 1044.7 259.248Z" fill="#F9F9F9"/>
</g>
<g filter="url(#filter3_d_628_8)">
<path d="M131.298 197.531L131.297 197.532C131.107 197.727 131 197.989 131 198.261C131 198.261 131 198.262 131 198.262V245.681L131.298 197.531ZM131.298 197.531L167.57 160.316C167.57 160.316 167.57 160.316 167.57 160.316C167.668 160.216 167.784 160.136 167.912 160.082C168.041 160.028 168.179 160 168.318 160L131.298 197.531ZM131.306 246.42L131.307 246.42L167.58 282.693L167.58 282.694C167.776 282.89 168.041 283 168.318 283L131.306 246.42ZM131.306 246.42C131.11 246.224 131 245.959 131 245.682L131.306 246.42ZM217.42 282.694L217.42 282.693L253.693 246.42L253.694 246.42C253.89 246.224 254 245.959 254 245.682L217.42 282.694ZM217.42 282.694C217.224 282.89 216.959 283 216.682 283L217.42 282.694ZM253.703 197.532L253.702 197.531L217.43 160.316C217.43 160.316 217.43 160.316 217.43 160.316C217.332 160.216 217.216 160.136 217.088 160.082C216.959 160.028 216.821 160 216.682 160L253.703 197.532ZM253.703 197.532C253.893 197.727 254 197.989 254 198.261C254 198.261 254 198.262 254 198.262M253.703 197.532L254 198.262M254 198.262V245.681V198.262ZM168.319 160H216.681H168.319ZM216.681 283H168.319H216.681ZM168.318 210.455C165.389 210.455 162.579 211.618 160.508 213.69C158.436 215.761 157.273 218.571 157.273 221.5C157.273 224.429 158.436 227.239 160.508 229.31C162.579 231.382 165.389 232.545 168.318 232.545H216.682C219.611 232.545 222.421 231.382 224.492 229.31C226.564 227.239 227.727 224.429 227.727 221.5C227.727 218.571 226.564 215.761 224.492 213.69C222.421 211.618 219.611 210.455 216.682 210.455H168.318Z" stroke="#F9F9F9" stroke-width="10" shape-rendering="crispEdges"/>
</g>
<defs>
<filter id="filter0_d_628_8" x="-52" y="-19" width="490" height="490" filterUnits="userSpaceOnUse" color-interpolation-filters="sRGB">
<feFlood flood-opacity="0" result="BackgroundImageFix"/>
<feColorMatrix in="SourceAlpha" type="matrix" values="0 0 0 0 0 0 0 0 0 0 0 0 0 0 0 0 0 0 127 0" result="hardAlpha"/>
<feOffset dy="4"/>
<feGaussianBlur stdDeviation="50"/>
<feComposite in2="hardAlpha" operator="out"/>
<feColorMatrix type="matrix" values="0 0 0 0 0 0 0 0 0 0 0 0 0 0 0 0 0 0 0.25 0"/>
<feBlend mode="normal" in2="BackgroundImageFix" result="effect1_dropShadow_628_8"/>
<feBlend mode="normal" in="SourceGraphic" in2="effect1_dropShadow_628_8" result="shape"/>
</filter>
<filter id="filter1_i_628_8" x="86" y="115" width="214" height="218" filterUnits="userSpaceOnUse" color-interpolation-filters="sRGB">
<feFlood flood-opacity="0" result="BackgroundImageFix"/>
<feBlend mode="normal" in="SourceGraphic" in2="BackgroundImageFix" result="shape"/>
<feColorMatrix in="SourceAlpha" type="matrix" values="0 0 0 0 0 0 0 0 0 0 0 0 0 0 0 0 0 0 127 0" result="hardAlpha"/>
<feOffset dy="4"/>
<feGaussianBlur stdDeviation="20"/>
<feComposite in2="hardAlpha" operator="arithmetic" k2="-1" k3="1"/>
<feColorMatrix type="matrix" values="0 0 0 0 0 0 0 0 0 0 0 0 0 0 0 0 0 0 0.25 0"/>
<feBlend mode="normal" in2="shape" result="effect1_innerShadow_628_8"/>
</filter>
<filter id="filter2_d_628_8" x="384.938" y="173.888" width="705.35" height="111.712" filterUnits="userSpaceOnUse" color-interpolation-filters="sRGB">
<feFlood flood-opacity="0" result="BackgroundImageFix"/>
<feColorMatrix in="SourceAlpha" type="matrix" values="0 0 0 0 0 0 0 0 0 0 0 0 0 0 0 0 0 0 127 0" result="hardAlpha"/>
<feOffset dy="4"/>
<feGaussianBlur stdDeviation="5"/>
<feComposite in2="hardAlpha" operator="out"/>
<feColorMatrix type="matrix" values="0 0 0 0 0 0 0 0 0 0 0 0 0 0 0 0 0 0 0.25 0"/>
<feBlend mode="normal" in2="BackgroundImageFix" result="effect1_dropShadow_628_8"/>
<feBlend mode="normal" in="SourceGraphic" in2="effect1_dropShadow_628_8" result="shape"/>
</filter>
<filter id="filter3_d_628_8" x="122" y="155" width="141" height="141" filterUnits="userSpaceOnUse" color-interpolation-filters="sRGB">
<feFlood flood-opacity="0" result="BackgroundImageFix"/>
<feColorMatrix in="SourceAlpha" type="matrix" values="0 0 0 0 0 0 0 0 0 0 0 0 0 0 0 0 0 0 127 0" result="hardAlpha"/>
<feOffset dy="4"/>
<feGaussianBlur stdDeviation="2"/>
<feComposite in2="hardAlpha" operator="out"/>
<feColorMatrix type="matrix" values="0 0 0 0 0 0 0 0 0 0 0 0 0 0 0 0 0 0 0.25 0"/>
<feBlend mode="normal" in2="BackgroundImageFix" result="effect1_dropShadow_628_8"/>
<feBlend mode="normal" in="SourceGraphic" in2="effect1_dropShadow_628_8" result="shape"/>
</filter>
<linearGradient id="paint0_linear_628_8" x1="245.5" y1="133" x2="180" y2="284" gradientUnits="userSpaceOnUse">
<stop stop-color="#F71515"/>
<stop offset="0.1875" stop-color="#F71212"/>
<stop offset="0.525942" stop-color="#FD3838"/>
<stop offset="0.526042" stop-color="#FD3838"/>
<stop offset="0.770833" stop-color="#F71565"/>
<stop offset="1" stop-color="#F71565"/>
</linearGradient>
</defs>
</svg>
