<svg width="290" height="290" viewBox="0 0 290 290" fill="none" xmlns="http://www.w3.org/2000/svg">
<rect width="290" height="290" rx="70" fill="#F9F9F9"/>
<g filter="url(#filter0_i_628_12)">
<circle cx="145" cy="145" r="107" fill="url(#paint0_linear_628_12)"/>
</g>
<g filter="url(#filter1_d_628_12)">
<path d="M76.2794 142.096C75.7514 142.432 75.2474 142.536 74.7674 142.408C74.2874 142.28 73.8794 141.952 73.5434 141.424L66.1034 129.04H59.3834V139.984C59.3834 141.328 58.7114 142 57.3674 142C56.0234 142 55.3514 141.328 55.3514 139.984V111.472C55.3514 110.128 56.0234 109.456 57.3674 109.456H68.5994C71.5274 109.456 73.7674 110.24 75.3194 111.808C76.8874 113.36 77.6714 115.6 77.6714 118.528V119.968C77.6714 122.512 77.0794 124.544 75.8954 126.064C74.7114 127.568 72.9994 128.504 70.7594 128.872L77.0474 139.36C77.6554 140.48 77.3994 141.392 76.2794 142.096ZM59.3834 125.008H68.5994C70.4234 125.008 71.7194 124.624 72.4874 123.856C73.2554 123.088 73.6394 121.792 73.6394 119.968V118.528C73.6394 116.72 73.2554 115.432 72.4874 114.664C71.7194 113.88 70.4234 113.488 68.5994 113.488H59.3834V125.008ZM88.2314 131.488V132.64C88.2314 134.704 88.6074 136.112 89.3594 136.864C90.1114 137.6 91.5274 137.968 93.6074 137.968H97.5434C99.1754 137.968 100.383 137.816 101.167 137.512C101.951 137.208 102.471 136.672 102.727 135.904C102.903 135.296 103.143 134.832 103.447 134.512C103.767 134.192 104.247 134.032 104.887 134.032C105.559 134.032 106.071 134.208 106.423 134.56C106.775 134.912 106.887 135.424 106.759 136.096C106.407 138.08 105.463 139.56 103.927 140.536C102.391 141.512 100.263 142 97.5434 142H93.6074C90.4234 142 88.0554 141.232 86.5034 139.696C84.9674 138.16 84.1994 135.808 84.1994 132.64V127.072C84.1994 123.824 84.9674 121.44 86.5034 119.92C88.0554 118.384 90.4234 117.632 93.6074 117.664H97.5434C100.743 117.664 103.111 118.432 104.647 119.968C106.183 121.488 106.951 123.856 106.951 127.072V129.472C106.951 130.816 106.279 131.488 104.935 131.488H88.2314ZM93.6074 121.696C91.5274 121.664 90.1114 122.024 89.3594 122.776C88.6074 123.528 88.2314 124.96 88.2314 127.072V127.456H102.919V127.072C102.919 124.976 102.543 123.56 101.791 122.824C101.055 122.072 99.6394 121.696 97.5434 121.696H93.6074ZM142.413 117.664C145.437 117.664 147.605 118.376 148.917 119.8C150.245 121.224 150.909 123.584 150.909 126.88V139.984C150.909 141.328 150.237 142 148.893 142C147.549 142 146.877 141.328 146.877 139.984V126.88C146.877 125.056 146.525 123.736 145.821 122.92C145.133 122.104 143.997 121.696 142.413 121.696H140.445C138.621 121.696 137.317 122.104 136.533 122.92C135.749 123.736 135.357 125.056 135.357 126.88V139.984C135.357 141.328 134.685 142 133.341 142C131.997 142 131.325 141.328 131.325 139.984V126.88C131.325 125.056 130.973 123.736 130.269 122.92C129.581 122.104 128.445 121.696 126.861 121.696H124.893C123.069 121.696 121.765 122.104 120.981 122.92C120.197 123.736 119.805 125.056 119.805 126.88V139.984C119.805 141.328 119.133 142 117.789 142C116.445 142 115.773 141.328 115.773 139.984V119.68C115.773 118.336 116.445 117.664 117.789 117.664C119.133 117.664 119.805 118.336 119.805 119.68V120.784C120.653 119.68 121.581 118.888 122.589 118.408C123.613 117.912 124.829 117.664 126.237 117.664H126.861C128.845 117.664 130.405 117.944 131.541 118.504C132.677 119.048 133.541 119.936 134.133 121.168C134.981 119.904 135.877 119.008 136.821 118.48C137.781 117.936 138.989 117.664 140.445 117.664H142.413ZM168.654 142C165.47 142 163.102 141.232 161.55 139.696C160.014 138.16 159.246 135.808 159.246 132.64V127.072C159.246 123.856 160.014 121.488 161.55 119.968C163.102 118.432 165.47 117.664 168.654 117.664H172.59C175.79 117.664 178.158 118.432 179.694 119.968C181.23 121.504 181.998 123.872 181.998 127.072V132.592C181.998 135.776 181.23 138.144 179.694 139.696C178.158 141.232 175.79 142 172.59 142H168.654ZM163.278 132.64C163.278 134.704 163.654 136.112 164.406 136.864C165.158 137.6 166.574 137.968 168.654 137.968H172.59C174.686 137.968 176.102 137.592 176.838 136.84C177.59 136.088 177.966 134.672 177.966 132.592V127.072C177.966 124.976 177.59 123.56 176.838 122.824C176.102 122.072 174.686 121.696 172.59 121.696H168.654C167.262 121.696 166.174 121.856 165.39 122.176C164.622 122.48 164.078 123.024 163.758 123.808C163.438 124.576 163.278 125.664 163.278 127.072V132.64ZM199.387 140.512C199.179 141.008 198.883 141.384 198.499 141.64C198.131 141.88 197.659 142 197.083 142C196.075 142 195.355 141.472 194.923 140.416L186.763 120.544C186.203 119.264 186.555 118.384 187.819 117.904C189.019 117.344 189.899 117.696 190.459 118.96L198.091 137.584H196.219L204.571 118.864C204.843 118.336 205.211 117.976 205.675 117.784C206.155 117.592 206.683 117.632 207.259 117.904C208.443 118.464 208.763 119.36 208.219 120.592L199.387 140.512ZM217.091 131.488V132.64C217.091 134.704 217.467 136.112 218.219 136.864C218.971 137.6 220.387 137.968 222.467 137.968H226.403C228.035 137.968 229.243 137.816 230.027 137.512C230.811 137.208 231.331 136.672 231.587 135.904C231.763 135.296 232.003 134.832 232.307 134.512C232.627 134.192 233.107 134.032 233.747 134.032C234.419 134.032 234.931 134.208 235.283 134.56C235.635 134.912 235.747 135.424 235.619 136.096C235.267 138.08 234.323 139.56 232.787 140.536C231.251 141.512 229.123 142 226.403 142H222.467C219.283 142 216.915 141.232 215.363 139.696C213.827 138.16 213.059 135.808 213.059 132.64V127.072C213.059 123.824 213.827 121.44 215.363 119.92C216.915 118.384 219.283 117.632 222.467 117.664H226.403C229.603 117.664 231.971 118.432 233.507 119.968C235.043 121.488 235.811 123.856 235.811 127.072V129.472C235.811 130.816 235.139 131.488 233.795 131.488H217.091ZM222.467 121.696C220.387 121.664 218.971 122.024 218.219 122.776C217.467 123.528 217.091 124.96 217.091 127.072V127.456H231.779V127.072C231.779 124.976 231.403 123.56 230.651 122.824C229.915 122.072 228.499 121.696 226.403 121.696H222.467ZM117.378 198.808C116.098 198.312 115.714 197.432 116.226 196.168L127.65 168.04C128.13 166.984 128.882 166.456 129.906 166.456H130.002C131.042 166.504 131.746 167.032 132.114 168.04L143.73 196.168C144.242 197.432 143.874 198.312 142.626 198.808C141.362 199.304 140.482 198.936 139.986 197.704L137.394 191.416H122.442L119.97 197.704C119.474 198.952 118.61 199.32 117.378 198.808ZM124.026 187.384H135.738L129.762 172.84L124.026 187.384ZM158.201 199C155.017 199 152.649 198.232 151.097 196.696C149.561 195.144 148.793 192.776 148.793 189.592V184.072C148.793 180.872 149.561 178.504 151.097 176.968C152.649 175.432 155.017 174.664 158.201 174.664H167.513V167.224C167.513 165.88 168.185 165.208 169.529 165.208C170.873 165.208 171.545 165.88 171.545 167.224V196.984C171.545 198.328 170.873 199 169.529 199C168.185 199 167.513 198.328 167.513 196.984V196.648C166.761 197.416 165.777 198 164.561 198.4C163.345 198.8 161.833 199 160.025 199H158.201ZM158.201 194.968H160.025C162.137 194.968 163.913 194.696 165.353 194.152C166.793 193.608 167.513 192.776 167.513 191.656V178.696H158.201C156.121 178.696 154.705 179.08 153.953 179.848C153.201 180.6 152.825 182.008 152.825 184.072V189.592C152.825 191.672 153.201 193.088 153.953 193.84C154.721 194.592 156.137 194.968 158.201 194.968Z" fill="#F9F9F9"/>
</g>
<defs>
<filter id="filter0_i_628_12" x="38" y="38" width="214" height="218" filterUnits="userSpaceOnUse" color-interpolation-filters="sRGB">
<feFlood flood-opacity="0" result="BackgroundImageFix"/>
<feBlend mode="normal" in="SourceGraphic" in2="BackgroundImageFix" result="shape"/>
<feColorMatrix in="SourceAlpha" type="matrix" values="0 0 0 0 0 0 0 0 0 0 0 0 0 0 0 0 0 0 127 0" result="hardAlpha"/>
<feOffset dy="4"/>
<feGaussianBlur stdDeviation="20"/>
<feComposite in2="hardAlpha" operator="arithmetic" k2="-1" k3="1"/>
<feColorMatrix type="matrix" values="0 0 0 0 0 0 0 0 0 0 0 0 0 0 0 0 0 0 0.25 0"/>
<feBlend mode="normal" in2="shape" result="effect1_innerShadow_628_12"/>
</filter>
<filter id="filter1_d_628_12" x="45.3516" y="103.456" width="200.459" height="110.12" filterUnits="userSpaceOnUse" color-interpolation-filters="sRGB">
<feFlood flood-opacity="0" result="BackgroundImageFix"/>
<feColorMatrix in="SourceAlpha" type="matrix" values="0 0 0 0 0 0 0 0 0 0 0 0 0 0 0 0 0 0 127 0" result="hardAlpha"/>
<feOffset dy="4"/>
<feGaussianBlur stdDeviation="5"/>
<feComposite in2="hardAlpha" operator="out"/>
<feColorMatrix type="matrix" values="0 0 0 0 0 0 0 0 0 0 0 0 0 0 0 0 0 0 0.25 0"/>
<feBlend mode="normal" in2="BackgroundImageFix" result="effect1_dropShadow_628_12"/>
<feBlend mode="normal" in="SourceGraphic" in2="effect1_dropShadow_628_12" result="shape"/>
</filter>
<linearGradient id="paint0_linear_628_12" x1="197.5" y1="56" x2="132" y2="207" gradientUnits="userSpaceOnUse">
<stop stop-color="#F71515"/>
<stop offset="0.1875" stop-color="#F71212"/>
<stop offset="0.525942" stop-color="#FD3838"/>
<stop offset="0.526042" stop-color="#FD3838"/>
<stop offset="0.770833" stop-color="#F71565"/>
<stop offset="1" stop-color="#F71565"/>
</linearGradient>
</defs>
</svg>
